<svg
    width="65"
    height="51"
    viewBox="0 0 65 51"
    fill="none"
    xmlns="http://www.w3.org/2000/svg"
  >
    <path
      d="M37.8787 24.5876C32.7618 20.7334 31.0949 23.4801 30.9011 25.3352C30.7018 27.9269 35.0821 30.2915 37.2972 31.1499C47.2652 33.808 53.329 31.8144 60.0574 30.4023C66.7857 28.9902 63.7123 25.2522 61.8848 22.7602C55.1565 27.9934 42.032 30.3192 37.8787 29.2393C34.556 28.3755 35.4421 27.1627 36.3004 26.6643C43.9425 28.741 59.7251 22.7602 59.7251 20.4343C59.7251 18.5736 58.0638 16.9455 57.2331 16.3641C49.7904 22.079 41.229 24.2277 37.8787 24.5876Z"
      fill="#BEA13E"
    />
    <path
      d="M38.7919 22.594C37.4629 21.265 35.5247 21.265 34.7217 21.4311L37.3798 19.8528C42.2309 18.0586 47.4308 10.1894 49.4244 6.47915C49.8492 5.68851 51.8857 5.8811 54.5438 9.80183C56.5912 12.8218 49.9493 17.5931 43.8282 20.6005C42.0026 21.4974 40.2614 22.0024 38.7919 22.594Z"
      fill="#BEA13E"
    />
    <path
      d="M51.9162 50.0059H37.7949L44.9386 48.9261C48.5271 48.5938 48.9258 44.302 48.6766 42.1977C51.2683 41.2674 51.9162 39.2073 51.9162 38.2936V50.0059Z"
      fill="#003366"
    />
    <path
      d="M31.2334 30.3192V50.089H32.6455V41.907V33.7249C44.0699 44.3936 51.8333 38.5657 52.4153 34.3895C40.9854 35.7185 33.5316 32.2297 31.2334 30.3192Z"
      fill="#BEA13E"
    />
    <path
      d="M31.0664 22.0956V9.71875H32.2293V22.0956H31.0664Z"
      fill="#BEA13E"
    />
    <path
      d="M17.0285 35.4693V32.3959H14.0381V35.4693H17.0285Z"
      fill="#003366"
    />
    <path
      d="M21.7638 35.4693V32.3959H18.7734V35.4693H21.7638Z"
      fill="#003366"
    />
    <path
      d="M21.7638 40.4533V37.3798H18.7734V40.4533H21.7638Z"
      fill="#003366"
    />
    <path
      d="M17.1115 40.4533V37.3798H14.1211V40.4533H17.1115Z"
      fill="#003366"
    />
    <path
      d="M12.4601 11.214L9.46973 13.5398V2.57507H16.8626V8.14051L14.2045 10.051V5.56546H12.4601V11.214Z"
      fill="#003366"
    />
    <path
      d="M7.97461 25.2521L11.2142 22.4279L11.4634 46.8494H24.8371V12.1277L28.1597 9.71875V50.3382H7.97461V25.2521Z"
      fill="#003366"
    />
    <path
      d="M4.98398 24.0062H0L30.07 0L43.9421 11.6293L40.9517 14.2043L30.07 4.56865L4.98398 24.0062Z"
      fill="#003366"
    />
  </svg>